Coordinates
version=1
nRows=7
nColumns=42
inDegrees=yes

Units are S.I. units (second, meters, Newtons, ...)
If the header above contains a line with 'inDegrees', this indicates whether rotational values are in degrees (yes) or radians (no).

endheader
time	pelvis_tilt	pelvis_list	pelvis_rotation	pelvis_tx	pelvis_ty	pelvis_tz	hip_flexion_r	hip_adduction_r	hip_rotation_r	knee_angle_r	knee_adduction_r	knee_angle_r_beta	ankle_angle_r	subtalar_angle_r	mtp_angle_r	hip_flexion_l	hip_adduction_l	hip_rotation_l	knee_angle_l	knee_adduction_l	knee_angle_l_beta	ankle_angle_l	subtalar_angle_l	mtp_angle_l	lumbar_extension	lumbar_bending	lumbar_rotation	arm_flex_r	arm_add_r	arm_rot_r	elbow_flex_r	pro_sup_r	wrist_flex_r	wrist_dev_r	arm_flex_l	arm_add_l	arm_rot_l	elbow_flex_l	pro_sup_l	wrist_flex_l	wrist_dev_l
      1.32000000	     24.12234106	      4.40335836	      2.11138622	      0.02888127	      0.94525383	     -0.26166487	    -23.77686020	     -7.24850569	    -17.13579219	     56.41505564	     -8.99497469	      0.98462847	     -3.58642491	      4.15916260	     -7.71983744	     -9.77816411	      9.91365321	     -0.25870073	     25.82139574	     -2.50084121	      0.45066837	      9.72597788	    -13.05655418	     -7.71983744	    -36.50412187	     -5.05089100	      4.60642342	      9.74776055	    -11.25042408	    -23.81958090	     28.74840744	     90.00000001	      0.00000000	      0.00000000	     -1.92826501	    -16.78310588	      3.68084936	     68.24262770	     90.00000001	      0.00000000	      0.00000000
      1.33000000	     24.15999962	      4.33107744	      2.14754060	      0.03396898	      0.94560036	     -0.26361303	    -22.68802897	     -7.36953777	    -16.88542294	     58.29677949	     -9.08614337	      1.01747075	     -2.88924330	      2.57687732	     -7.71324766	    -10.15032483	      9.93751984	      0.11641567	     25.91891489	     -2.35179777	      0.45237040	     10.06944435	    -13.22744768	     -7.71324766	    -36.63589720	     -4.98609049	      4.55178183	      9.29597688	    -11.37249148	    -24.15898659	     28.55370484	     90.00000001	      0.00000000	      0.00000000	     -1.75589329	    -16.89362932	      3.73620703	     68.49508388	     90.00000001	      0.00000000	      0.00000000
      1.34000000	     24.37744826	      4.10140702	      2.05578749	      0.03905547	      0.94634434	     -0.26509538	    -21.76587320	     -7.25761292	    -16.76626187	     59.83848236	     -9.47918368	      1.04437854	     -1.99173971	      1.34323768	     -7.70979487	    -10.77958752	      9.72579365	      0.44459101	     25.88766727	     -2.03981374	      0.45182503	     10.41775130	    -13.48155587	     -7.70979487	    -36.93022745	     -4.85543667	      4.70384962	      8.84782145	    -11.51134112	    -24.38943741	     28.34435923	     90.00000001	      0.00000000	      0.00000000	     -1.55112706	    -16.93244238	      3.71548447	     68.75078587	     90.00000001	      0.00000000	      0.00000000
      1.35000000	     24.32669951	      4.03224374	      2.10169158	      0.04354687	      0.94667771	     -0.26702133	    -20.49864339	     -7.38408757	    -15.93548023	     61.63152367	     -8.85107369	      1.07567301	     -1.18956726	     -1.74955378	     -7.70083552	    -11.03712384	      9.80552023	      1.42606811	     25.99489911	     -1.74500776	      0.45369658	     10.14158012	    -14.85439947	     -7.70083552	    -37.05381962	     -4.78269591	      4.59507477	      8.61587486	    -11.57053499	    -25.29075504	     28.02612511	     90.00000001	      0.00000000	      0.00000000	     -1.32288807	    -17.05833360	      3.79994533	     68.88249180	     90.00000001	      0.00000000	      0.00000000
      1.36000000	     24.63857928	      3.72760144	      1.97405056	      0.04845793	      0.94762707	     -0.26820146	    -19.67002196	     -7.09727793	    -16.06794839	     62.69203894	     -9.48022003	      1.09418249	      0.10715094	     -2.67994698	     -7.69824870	    -11.80412793	      9.49661428	      1.71001330	     25.85214705	     -1.43897967	      0.45120508	     10.42442295	    -15.07591835	     -7.69824870	    -37.45297878	     -4.60208182	      4.76555313	      8.23079835	    -11.71343379	    -25.52013314	     27.82379260	     90.00000001	      0.00000000	      0.00000000	     -1.13765910	    -17.13457128	      3.71026483	     69.08310850	     90.00000001	      0.00000000	      0.00000000
      1.37000000	     24.79227870	      3.50862209	      1.94645048	      0.05299969	      0.94829325	     -0.26963035	    -18.62490882	     -6.90135990	    -16.20917626	     63.74462901	     -9.95527171	      1.11255366	      1.63597411	     -3.85929977	     -7.69518331	    -12.34864176	      9.31280620	      2.19640430	     25.77434840	     -1.15184788	      0.44984724	     10.59741780	    -15.46532782	     -7.69518331	    -37.73711095	     -4.43987708	      4.76671486	      7.93374437	    -11.78925280	    -25.85723595	     27.63497687	     90.00000001	      0.00000000	      0.00000000	     -0.94531130	    -17.20892350	      3.68855510	     69.27977751	     90.00000001	      0.00000000	      0.00000000
      1.38000000	     24.95975299	      3.28018282	      1.85128790	      0.05757924	      0.94900701	     -0.27079608	    -17.60567848	     -6.67994268	    -16.33155138	     64.50539814	    -10.40063809	      1.12583158	      3.03318512	     -4.78008657	     -7.69293577	    -12.93799529	      9.14282248	      2.53536418	     25.64738610	     -0.96589292	      0.44763133	     10.72744578	    -15.82671661	     -7.69293577	    -38.02143152	     -4.32979939	      4.83946772	      7.61866664	    -11.89784545	    -26.16268556	     27.41212990	     90.00000001	      0.00000000	      0.00000000	     -0.77665615	    -17.37957724	      3.61137161	     69.42860250	     90.00000001	      0.00000000	      0.00000000
